<svg width="40" height="40" viewBox="0 0 40 40" fill="none" xmlns="http://www.w3.org/2000/svg">
    <path
        d="M27.5168 28.9167L26.9335 35.3C26.8584 36.1311 26.4743 36.9037 25.8571 37.4654C25.24 38.027 24.4346 38.3367 23.6001 38.3333H16.3835C15.549 38.3367 14.7436 38.027 14.1265 37.4654C13.5093 36.9037 13.1252 36.1311 13.0501 35.3L12.4668 28.9167M12.4835 11.0833L13.0668 4.69999C13.1416 3.87178 13.5233 3.10146 14.137 2.54024C14.7506 1.97902 15.5519 1.66744 16.3835 1.66665H23.6335C24.4679 1.66327 25.2733 1.97298 25.8905 2.53461C26.5076 3.09623 26.8917 3.86891 26.9668 4.69999L27.5501 11.0833"
        fill="#BF6F00" />
    <path
        d="M27.5168 28.9167L26.9335 35.3C26.8584 36.1311 26.4743 36.9037 25.8571 37.4654C25.24 38.027 24.4346 38.3367 23.6001 38.3333H16.3835C15.549 38.3367 14.7436 38.027 14.1265 37.4654C13.5093 36.9037 13.1252 36.1311 13.0501 35.3L12.4668 28.9167M12.4835 11.0833L13.0668 4.69999C13.1416 3.87178 13.5233 3.10146 14.137 2.54024C14.7506 1.97902 15.5519 1.66744 16.3835 1.66665H23.6335C24.4679 1.66327 25.2733 1.97298 25.8905 2.53461C26.5076 3.09623 26.8917 3.86891 26.9668 4.69999L27.5501 11.0833"
        stroke="white" stroke-width="2" stroke-linecap="round" stroke-linejoin="round" />
    <path
        d="M19.9997 31.6667C26.443 31.6667 31.6663 26.4434 31.6663 20C31.6663 13.5567 26.443 8.33337 19.9997 8.33337C13.5564 8.33337 8.33301 13.5567 8.33301 20C8.33301 26.4434 13.5564 31.6667 19.9997 31.6667Z"
        fill="#BF6F00" stroke="white" stroke-width="2" stroke-linecap="round"
        stroke-linejoin="round" />
    <path d="M20 15V20L22.5 22.5" stroke="white" stroke-width="2" stroke-linecap="round"
        stroke-linejoin="round" />
</svg>
    