<svg width="40" height="40" viewBox="0 0 40 40" fill="none" xmlns="http://www.w3.org/2000/svg">
    <path
        d="M23.3337 3.33337H10.0003C9.11627 3.33337 8.26842 3.68456 7.6433 4.30968C7.01818 4.93481 6.66699 5.78265 6.66699 6.66671V33.3334C6.66699 34.2174 7.01818 35.0653 7.6433 35.6904C8.26842 36.3155 9.11627 36.6667 10.0003 36.6667H30.0003C30.8844 36.6667 31.7322 36.3155 32.3573 35.6904C32.9825 35.0653 33.3337 34.2174 33.3337 33.3334V13.3334L23.3337 3.33337Z"
        fill="#119C30" stroke="white" stroke-width="2.4" stroke-linecap="round"
        stroke-linejoin="round" />
    <mask id="path-2-inside-1_417_1151" fill="white">
        <path d="M24.167 2.5V12.5H34.167" />
    </mask>
    <path d="M24.167 2.5V12.5H34.167" fill="#AAF6BA" />
    <path
        d="M26.567 2.5C26.567 1.17452 25.4925 0.0999999 24.167 0.0999999C22.8415 0.0999999 21.767 1.17452 21.767 2.5H26.567ZM24.167 12.5H21.767C21.767 13.8255 22.8415 14.9 24.167 14.9V12.5ZM34.167 14.9C35.4925 14.9 36.567 13.8255 36.567 12.5C36.567 11.1745 35.4925 10.1 34.167 10.1V14.9ZM21.767 2.5V12.5H26.567V2.5H21.767ZM24.167 14.9H34.167V10.1H24.167V14.9Z"
        fill="white" mask="url(#path-2-inside-1_417_1151)" />
    <path d="M15.2295 18.8209L15.2295 31.0936" stroke="white" stroke-width="2.4"
        stroke-linecap="round" stroke-linejoin="round" />
    <path d="M15.2295 16.0936L19.5596 21.0936H10.8994L15.2295 16.0936Z" fill="white" />
    <path d="M25.2295 21.5481V31.0935" stroke="white" stroke-width="2.4" stroke-linecap="round"
        stroke-linejoin="round" />
    <path d="M25.2295 19.4269L29.5596 23.1769H20.8994L25.2295 19.4269Z" fill="white" />
</svg>