<svg width="32" height="32" viewBox="0 0 32 32" fill="none" xmlns="http://www.w3.org/2000/svg">
    <rect width="32" height="32" rx="4.07" fill="#4B57E2" />
    <rect width="32" height="32" rx="4.07" fill="url(#paint0_linear_216_708)" />
    <path
        d="M22.5 18.4999H22V12.4999C22 12.1021 21.842 11.7205 21.5607 11.4392C21.2794 11.1579 20.8978 10.9999 20.5 10.9999H11.5C11.1022 10.9999 10.7206 11.1579 10.4393 11.4392C10.158 11.7205 10 12.1021 10 12.4999V18.4999H9.5C9.36739 18.4999 9.24021 18.5526 9.14645 18.6463C9.05268 18.7401 9 18.8673 9 18.9999V19.9999C9 20.3977 9.15804 20.7792 9.43934 21.0605C9.72064 21.3418 10.1022 21.4999 10.5 21.4999H21.5C21.8978 21.4999 22.2794 21.3418 22.5607 21.0605C22.842 20.7792 23 20.3977 23 19.9999V18.9999C23 18.8673 22.9473 18.7401 22.8536 18.6463C22.7598 18.5526 22.6326 18.4999 22.5 18.4999ZM11 12.4999C11 12.3673 11.0527 12.2401 11.1464 12.1463C11.2402 12.0526 11.3674 11.9999 11.5 11.9999H20.5C20.6326 11.9999 20.7598 12.0526 20.8536 12.1463C20.9473 12.2401 21 12.3673 21 12.4999V18.4999H11V12.4999ZM22 19.9999C22 20.1325 21.9473 20.2597 21.8536 20.3534C21.7598 20.4472 21.6326 20.4999 21.5 20.4999H10.5C10.3674 20.4999 10.2402 20.4472 10.1464 20.3534C10.0527 20.2597 10 20.1325 10 19.9999V19.4999H22V19.9999ZM17.5 13.4999C17.5 13.6325 17.4473 13.7597 17.3536 13.8534C17.2598 13.9472 17.1326 13.9999 17 13.9999H15C14.8674 13.9999 14.7402 13.9472 14.6464 13.8534C14.5527 13.7597 14.5 13.6325 14.5 13.4999C14.5 13.3673 14.5527 13.2401 14.6464 13.1463C14.7402 13.0526 14.8674 12.9999 15 12.9999H17C17.1326 12.9999 17.2598 13.0526 17.3536 13.1463C17.4473 13.2401 17.5 13.3673 17.5 13.4999Z"
        fill="white" />
    <defs>
        <linearGradient id="paint0_linear_216_708" x1="16" y1="0" x2="16" y2="32"
            gradientUnits="userSpaceOnUse">
            <stop stop-color="#5499FF" />
            <stop offset="1" stop-color="#4B57E2" stop-opacity="0.9" />
        </linearGradient>
    </defs>
</svg>
    