<svg width="32" height="32" viewBox="0 0 32 32" fill="none" xmlns="http://www.w3.org/2000/svg">
    <rect width="32" height="32" rx="4.07" fill="#4B57E2" />
    <rect width="32" height="32" rx="4.07" fill="url(#paint0_linear_216_678)" />
    <path
        d="M21.5979 15.7817C21.5979 15.9143 21.5453 16.0414 21.4515 16.1352C21.3577 16.229 21.2305 16.2817 21.0979 16.2817H15.5979C15.4653 16.2817 15.3381 16.229 15.2444 16.1352C15.1506 16.0414 15.0979 15.9143 15.0979 15.7817C15.0979 15.649 15.1506 15.5219 15.2444 15.4281C15.3381 15.3343 15.4653 15.2817 15.5979 15.2817H21.0979C21.2305 15.2817 21.3577 15.3343 21.4515 15.4281C21.5453 15.5219 21.5979 15.649 21.5979 15.7817ZM15.5979 12.2817H21.0979C21.2305 12.2817 21.3577 12.229 21.4515 12.1352C21.5453 12.0414 21.5979 11.9143 21.5979 11.7817C21.5979 11.649 21.5453 11.5219 21.4515 11.4281C21.3577 11.3343 21.2305 11.2817 21.0979 11.2817H15.5979C15.4653 11.2817 15.3381 11.3343 15.2444 11.4281C15.1506 11.5219 15.0979 11.649 15.0979 11.7817C15.0979 11.9143 15.1506 12.0414 15.2444 12.1352C15.3381 12.229 15.4653 12.2817 15.5979 12.2817ZM21.0979 19.2817H15.5979C15.4653 19.2817 15.3381 19.3343 15.2444 19.4281C15.1506 19.5219 15.0979 19.649 15.0979 19.7817C15.0979 19.9143 15.1506 20.0414 15.2444 20.1352C15.3381 20.229 15.4653 20.2817 15.5979 20.2817H21.0979C21.2305 20.2817 21.3577 20.229 21.4515 20.1352C21.5453 20.0414 21.5979 19.9143 21.5979 19.7817C21.5979 19.649 21.5453 19.5219 21.4515 19.4281C21.3577 19.3343 21.2305 19.2817 21.0979 19.2817ZM12.7442 10.4279L11.0979 12.0748L10.4517 11.4279C10.3579 11.3341 10.2306 11.2814 10.0979 11.2814C9.96525 11.2814 9.838 11.3341 9.74418 11.4279C9.65036 11.5217 9.59766 11.649 9.59766 11.7817C9.59766 11.9143 9.65036 12.0416 9.74418 12.1354L10.7442 13.1354C10.7906 13.1819 10.8458 13.2188 10.9065 13.2439C10.9672 13.2691 11.0322 13.282 11.0979 13.282C11.1636 13.282 11.2287 13.2691 11.2894 13.2439C11.3501 13.2188 11.4052 13.1819 11.4517 13.1354L13.4517 11.1354C13.5455 11.0416 13.5982 10.9143 13.5982 10.7817C13.5982 10.649 13.5455 10.5217 13.4517 10.4279C13.3579 10.3341 13.2306 10.2814 13.0979 10.2814C12.9653 10.2814 12.838 10.3341 12.7442 10.4279ZM12.7442 14.4279L11.0979 16.0748L10.4517 15.4279C10.3579 15.3341 10.2306 15.2814 10.0979 15.2814C9.96525 15.2814 9.838 15.3341 9.74418 15.4279C9.65036 15.5217 9.59766 15.649 9.59766 15.7817C9.59766 15.8473 9.6106 15.9124 9.63574 15.9731C9.66088 16.0338 9.69773 16.0889 9.74418 16.1354L10.7442 17.1354C10.7906 17.1819 10.8458 17.2188 10.9065 17.2439C10.9672 17.2691 11.0322 17.282 11.0979 17.282C11.1636 17.282 11.2287 17.2691 11.2894 17.2439C11.3501 17.2188 11.4052 17.1819 11.4517 17.1354L13.4517 15.1354C13.5455 15.0416 13.5982 14.9143 13.5982 14.7817C13.5982 14.649 13.5455 14.5217 13.4517 14.4279C13.3579 14.3341 13.2306 14.2814 13.0979 14.2814C12.9653 14.2814 12.838 14.3341 12.7442 14.4279ZM12.7442 18.4279L11.0979 20.0748L10.4517 19.4279C10.4052 19.3814 10.3501 19.3446 10.2894 19.3195C10.2287 19.2943 10.1636 19.2814 10.0979 19.2814C10.0322 19.2814 9.96718 19.2943 9.90649 19.3195C9.84579 19.3446 9.79064 19.3814 9.74418 19.4279C9.69773 19.4744 9.66088 19.5295 9.63574 19.5902C9.6106 19.6509 9.59766 19.716 9.59766 19.7817C9.59766 19.8473 9.6106 19.9124 9.63574 19.9731C9.66088 20.0338 9.69773 20.0889 9.74418 20.1354L10.7442 21.1354C10.7906 21.1819 10.8458 21.2188 10.9065 21.2439C10.9672 21.2691 11.0322 21.282 11.0979 21.282C11.1636 21.282 11.2287 21.2691 11.2894 21.2439C11.3501 21.2188 11.4052 21.1819 11.4517 21.1354L13.4517 19.1354C13.5455 19.0416 13.5982 18.9143 13.5982 18.7817C13.5982 18.649 13.5455 18.5217 13.4517 18.4279C13.3579 18.3341 13.2306 18.2814 13.0979 18.2814C12.9653 18.2814 12.838 18.3341 12.7442 18.4279Z"
        fill="white" />
    <defs>
        <linearGradient id="paint0_linear_216_678" x1="16" y1="0" x2="16" y2="32"
            gradientUnits="userSpaceOnUse">
            <stop stop-color="#5499FF" />
            <stop offset="1" stop-color="#4B57E2" stop-opacity="0.9" />
        </linearGradient>
    </defs>
</svg>
    