<svg width="56" height="56" viewBox="0 0 56 56" fill="none" xmlns="http://www.w3.org/2000/svg">
    <circle cx="28" cy="28" r="28" fill="#FAFAFA" stroke="#E3E3E3" />
    <path
        d="M27.9993 39.4921C27.7855 39.4921 27.5863 39.4773 27.402 39.4478C27.2169 39.419 27.0466 39.3755 26.891 39.3171C24.4799 38.4227 22.5063 36.8282 20.9702 34.5338C19.4341 32.2393 18.666 29.7116 18.666 26.9505V21.438C18.666 20.9518 18.8072 20.5143 19.0895 20.1255C19.3711 19.7366 19.7355 19.4546 20.1827 19.2796L27.1827 16.6546C27.4549 16.5574 27.7271 16.5088 27.9993 16.5088C28.2716 16.5088 28.5438 16.5574 28.816 16.6546L35.816 19.2796C36.2632 19.4546 36.628 19.7366 36.9104 20.1255C37.1919 20.5143 37.3327 20.9518 37.3327 21.438V26.9505C37.3327 29.7116 36.5646 32.2393 35.0285 34.5338C33.4924 36.8282 31.5188 38.4227 29.1077 39.3171C28.9521 39.3755 28.7818 39.419 28.5967 39.4478C28.4123 39.4773 28.2132 39.4921 27.9993 39.4921ZM27.9993 37.2171C29.8855 36.6338 31.4605 35.4819 32.7243 33.7615C33.9882 32.0402 34.7271 30.1199 34.941 28.0005H27.9993V18.813L20.9993 21.438V27.4755C20.9993 27.6116 21.0188 27.7866 21.0577 28.0005H27.9993V37.2171Z"
        fill="black" />
</svg>
    