<svg width="56" height="56" viewBox="0 0 56 56" fill="none" xmlns="http://www.w3.org/2000/svg">
    <circle cx="28" cy="28" r="28" fill="white" />
    <path
        d="M37.3691 23.0059L31.2441 16.8809C31.1627 16.7997 31.0662 16.7353 30.96 16.6914C30.8538 16.6475 30.7399 16.6249 30.625 16.625H20.125C19.6609 16.625 19.2158 16.8094 18.8876 17.1376C18.5594 17.4658 18.375 17.9109 18.375 18.375V37.625C18.375 38.0891 18.5594 38.5342 18.8876 38.8624C19.2158 39.1906 19.6609 39.375 20.125 39.375H35.875C36.3391 39.375 36.7842 39.1906 37.1124 38.8624C37.4406 38.5342 37.625 38.0891 37.625 37.625V23.625C37.6251 23.5101 37.6025 23.3962 37.5586 23.29C37.5147 23.1838 37.4503 23.0873 37.3691 23.0059ZM31.5 19.612L34.638 22.75H31.5V19.612ZM35.875 37.625H20.125V18.375H29.75V23.625C29.75 23.8571 29.8422 24.0796 30.0063 24.2437C30.1704 24.4078 30.3929 24.5 30.625 24.5H35.875V37.625Z"
        fill="black" />
</svg>