<svg width="56" height="56" viewBox="0 0 56 56" fill="none" xmlns="http://www.w3.org/2000/svg">
    <circle cx="28" cy="28" r="27.5" fill="#FAFAFA" stroke="#E3E3E3" />
    <g clip-path="url(#clip0_272_754)">
        <path
            d="M39.1923 29.4284C38.9062 29.2079 38.5782 29.048 38.2283 28.9583C37.8783 28.8686 37.5138 28.851 37.1569 28.9067C39.2109 26.833 40.25 24.7713 40.25 22.75C40.25 19.8548 37.9214 17.5 35.0591 17.5C34.2996 17.4952 33.5482 17.6568 32.8578 17.9733C32.1674 18.2897 31.5546 18.7535 31.0625 19.332C30.5704 18.7535 29.9576 18.2897 29.2672 17.9733C28.5768 17.6568 27.8254 17.4952 27.0659 17.5C24.2036 17.5 21.875 19.8548 21.875 22.75C21.875 23.9531 22.2294 25.1223 22.9753 26.3594C22.3644 26.5142 21.8068 26.8317 21.362 27.2781L18.888 29.75H15.75C15.2859 29.75 14.8408 29.9344 14.5126 30.2626C14.1844 30.5908 14 31.0359 14 31.5V35.875C14 36.3391 14.1844 36.7843 14.5126 37.1124C14.8408 37.4406 15.2859 37.625 15.75 37.625H27.125C27.1965 37.625 27.2678 37.6162 27.3372 37.5988L34.3372 35.8488C34.3818 35.8381 34.4254 35.8235 34.4673 35.805L38.7187 33.9959L38.7669 33.9741C39.1755 33.7699 39.5254 33.4651 39.7836 33.0883C40.0418 32.7115 40.1999 32.2752 40.2429 31.8205C40.2859 31.3658 40.2124 30.9076 40.0294 30.4891C39.8463 30.0706 39.5598 29.7056 39.1967 29.4284H39.1923ZM27.0659 19.25C27.7436 19.2401 28.4089 19.4325 28.9766 19.8027C29.5444 20.1729 29.9888 20.704 30.2531 21.3281C30.319 21.4886 30.4312 21.6259 30.5753 21.7225C30.7194 21.8191 30.889 21.8707 31.0625 21.8707C31.236 21.8707 31.4056 21.8191 31.5497 21.7225C31.6938 21.6259 31.806 21.4886 31.8719 21.3281C32.1362 20.704 32.5806 20.1729 33.1484 19.8027C33.7161 19.4325 34.3814 19.2401 35.0591 19.25C36.9239 19.25 38.5 20.8523 38.5 22.75C38.5 24.8839 36.773 27.2978 33.5059 29.7391L32.293 30.018C32.3994 29.5682 32.4027 29.1002 32.3026 28.649C32.2024 28.1978 32.0015 27.7751 31.7147 27.4126C31.428 27.0501 31.063 26.7572 30.6469 26.5559C30.2309 26.3545 29.7747 26.25 29.3125 26.25H25.0119C24.068 24.9769 23.625 23.8569 23.625 22.75C23.625 20.8523 25.2011 19.25 27.0659 19.25ZM15.75 31.5H18.375V35.875H15.75V31.5ZM38.0002 32.398L33.8439 34.1677L27.0156 35.875H20.125V30.987L22.6002 28.513C22.7621 28.3498 22.9548 28.2204 23.1672 28.1323C23.3795 28.0442 23.6073 27.9993 23.8372 28H29.3125C29.6606 28 29.9944 28.1383 30.2406 28.3844C30.4867 28.6306 30.625 28.9644 30.625 29.3125C30.625 29.6606 30.4867 29.9944 30.2406 30.2406C29.9944 30.4867 29.6606 30.625 29.3125 30.625H26.25C26.0179 30.625 25.7954 30.7172 25.6313 30.8813C25.4672 31.0454 25.375 31.2679 25.375 31.5C25.375 31.7321 25.4672 31.9546 25.6313 32.1187C25.7954 32.2828 26.0179 32.375 26.25 32.375H29.75C29.8159 32.3748 29.8815 32.3675 29.9458 32.3531L37.2739 30.6677L37.3078 30.6589C37.5315 30.5968 37.7703 30.6196 37.9782 30.723C38.1861 30.8263 38.3484 31.0029 38.4339 31.2188C38.5194 31.4346 38.5221 31.6744 38.4414 31.8921C38.3607 32.1098 38.2024 32.29 37.9969 32.398H38.0002Z"
            fill="black" />
    </g>
    <defs>
        <clipPath id="clip0_272_754">
            <rect width="28" height="28" fill="white" transform="translate(14 14)" />
        </clipPath>
    </defs>
</svg>