<svg width="56" height="56" viewBox="0 0 56 56" fill="none" xmlns="http://www.w3.org/2000/svg">
    <circle cx="28" cy="28" r="27.5" fill="#FAFAFA" stroke="#E3E3E3" />
    <path
        d="M23.3343 31.2087C23.1127 31.2087 22.891 31.1271 22.716 30.9521L20.3827 28.6187C20.0443 28.2804 20.0443 27.7203 20.3827 27.382L22.716 25.0487C23.0543 24.7103 23.6143 24.7103 23.9527 25.0487C24.291 25.387 24.291 25.9471 23.9527 26.2854L22.2377 28.0004L23.9527 29.7153C24.291 30.0537 24.291 30.6137 23.9527 30.9521C23.7777 31.1271 23.556 31.2087 23.3343 31.2087Z"
        fill="#12141D" />
    <path
        d="M32.667 31.2087C32.4453 31.2087 32.2237 31.1271 32.0487 30.9521C31.7103 30.6137 31.7103 30.0537 32.0487 29.7153L33.7637 28.0004L32.0487 26.2854C31.7103 25.9471 31.7103 25.387 32.0487 25.0487C32.387 24.7103 32.947 24.7103 33.2853 25.0487L35.6187 27.382C35.957 27.7203 35.957 28.2804 35.6187 28.6187L33.2853 30.9521C33.1103 31.1271 32.8887 31.2087 32.667 31.2087Z"
        fill="#12141D" />
    <path
        d="M28.0007 40.5413C21.0823 40.5413 15.459 34.918 15.459 27.9997C15.459 21.0813 21.0823 15.458 28.0007 15.458C34.919 15.458 40.5423 21.0813 40.5423 27.9997C40.5423 34.918 34.919 40.5413 28.0007 40.5413ZM28.0007 17.208C22.0507 17.208 17.209 22.0497 17.209 27.9997C17.209 33.9497 22.0507 38.7913 28.0007 38.7913C33.9507 38.7913 38.7923 33.9497 38.7923 27.9997C38.7923 22.0497 33.9507 17.208 28.0007 17.208Z"
        fill="#12141D" />
    <path
        d="M26.8331 31.593C26.7165 31.593 26.5998 31.5697 26.4948 31.523C26.0515 31.3363 25.8415 30.823 26.0398 30.368L28.3732 24.9196C28.5598 24.4763 29.0731 24.2663 29.5165 24.4646C29.9598 24.6513 30.1698 25.1647 29.9715 25.6197L27.6381 31.068C27.4981 31.3947 27.1715 31.593 26.8331 31.593Z"
        fill="#12141D" />
</svg>
    