<svg width="56" height="56" viewBox="0 0 56 56" fill="none" xmlns="http://www.w3.org/2000/svg">
    <circle cx="28" cy="28" r="27.5" fill="#FAFAFA" stroke="#E3E3E3" />
    <path
        d="M22.75 27.125H33.25C33.4821 27.125 33.7046 27.0328 33.8687 26.8687C34.0328 26.7046 34.125 26.4821 34.125 26.25V21C34.125 20.7679 34.0328 20.5454 33.8687 20.3813C33.7046 20.2172 33.4821 20.125 33.25 20.125H22.75C22.5179 20.125 22.2954 20.2172 22.1313 20.3813C21.9672 20.5454 21.875 20.7679 21.875 21V26.25C21.875 26.4821 21.9672 26.7046 22.1313 26.8687C22.2954 27.0328 22.5179 27.125 22.75 27.125ZM23.625 21.875H32.375V25.375H23.625V21.875ZM35.875 16.625H20.125C19.6609 16.625 19.2158 16.8094 18.8876 17.1376C18.5594 17.4658 18.375 17.9109 18.375 18.375V37.625C18.375 38.0891 18.5594 38.5342 18.8876 38.8624C19.2158 39.1906 19.6609 39.375 20.125 39.375H35.875C36.3391 39.375 36.7842 39.1906 37.1124 38.8624C37.4406 38.5342 37.625 38.0891 37.625 37.625V18.375C37.625 17.9109 37.4406 17.4658 37.1124 17.1376C36.7842 16.8094 36.3391 16.625 35.875 16.625ZM35.875 37.625H20.125V18.375H35.875V37.625ZM24.9375 30.1875C24.9375 30.4471 24.8605 30.7008 24.7163 30.9167C24.5721 31.1325 24.3671 31.3008 24.1273 31.4001C23.8874 31.4994 23.6235 31.5254 23.3689 31.4748C23.1143 31.4241 22.8805 31.2991 22.6969 31.1156C22.5134 30.932 22.3884 30.6982 22.3377 30.4436C22.2871 30.189 22.3131 29.9251 22.4124 29.6852C22.5117 29.4454 22.68 29.2404 22.8958 29.0962C23.1117 28.952 23.3654 28.875 23.625 28.875C23.9731 28.875 24.3069 29.0133 24.5531 29.2594C24.7992 29.5056 24.9375 29.8394 24.9375 30.1875ZM29.3125 30.1875C29.3125 30.4471 29.2355 30.7008 29.0913 30.9167C28.9471 31.1325 28.7421 31.3008 28.5023 31.4001C28.2624 31.4994 27.9985 31.5254 27.7439 31.4748C27.4893 31.4241 27.2555 31.2991 27.0719 31.1156C26.8884 30.932 26.7634 30.6982 26.7127 30.4436C26.6621 30.189 26.6881 29.9251 26.7874 29.6852C26.8867 29.4454 27.055 29.2404 27.2708 29.0962C27.4867 28.952 27.7404 28.875 28 28.875C28.3481 28.875 28.6819 29.0133 28.9281 29.2594C29.1742 29.5056 29.3125 29.8394 29.3125 30.1875ZM33.6875 30.1875C33.6875 30.4471 33.6105 30.7008 33.4663 30.9167C33.3221 31.1325 33.1171 31.3008 32.8773 31.4001C32.6374 31.4994 32.3735 31.5254 32.1189 31.4748C31.8643 31.4241 31.6305 31.2991 31.4469 31.1156C31.2634 30.932 31.1384 30.6982 31.0877 30.4436C31.0371 30.189 31.0631 29.9251 31.1624 29.6852C31.2617 29.4454 31.43 29.2404 31.6458 29.0962C31.8617 28.952 32.1154 28.875 32.375 28.875C32.7231 28.875 33.0569 29.0133 33.3031 29.2594C33.5492 29.5056 33.6875 29.8394 33.6875 30.1875ZM24.9375 34.5625C24.9375 34.8221 24.8605 35.0758 24.7163 35.2917C24.5721 35.5075 24.3671 35.6758 24.1273 35.7751C23.8874 35.8744 23.6235 35.9004 23.3689 35.8498C23.1143 35.7991 22.8805 35.6741 22.6969 35.4906C22.5134 35.307 22.3884 35.0732 22.3377 34.8186C22.2871 34.564 22.3131 34.3001 22.4124 34.0602C22.5117 33.8204 22.68 33.6154 22.8958 33.4712C23.1117 33.327 23.3654 33.25 23.625 33.25C23.9731 33.25 24.3069 33.3883 24.5531 33.6344C24.7992 33.8806 24.9375 34.2144 24.9375 34.5625ZM29.3125 34.5625C29.3125 34.8221 29.2355 35.0758 29.0913 35.2917C28.9471 35.5075 28.7421 35.6758 28.5023 35.7751C28.2624 35.8744 27.9985 35.9004 27.7439 35.8498C27.4893 35.7991 27.2555 35.6741 27.0719 35.4906C26.8884 35.307 26.7634 35.0732 26.7127 34.8186C26.6621 34.564 26.6881 34.3001 26.7874 34.0602C26.8867 33.8204 27.055 33.6154 27.2708 33.4712C27.4867 33.327 27.7404 33.25 28 33.25C28.3481 33.25 28.6819 33.3883 28.9281 33.6344C29.1742 33.8806 29.3125 34.2144 29.3125 34.5625ZM33.6875 34.5625C33.6875 34.8221 33.6105 35.0758 33.4663 35.2917C33.3221 35.5075 33.1171 35.6758 32.8773 35.7751C32.6374 35.8744 32.3735 35.9004 32.1189 35.8498C31.8643 35.7991 31.6305 35.6741 31.4469 35.4906C31.2634 35.307 31.1384 35.0732 31.0877 34.8186C31.0371 34.564 31.0631 34.3001 31.1624 34.0602C31.2617 33.8204 31.43 33.6154 31.6458 33.4712C31.8617 33.327 32.1154 33.25 32.375 33.25C32.7231 33.25 33.0569 33.3883 33.3031 33.6344C33.5492 33.8806 33.6875 34.2144 33.6875 34.5625Z"
        fill="black" />
</svg>