<svg width="56" height="56" viewBox="0 0 56 56" fill="none" xmlns="http://www.w3.org/2000/svg">
    <circle cx="28" cy="28" r="27.5" fill="#FAFAFA" stroke="#E3E3E3" />
    <g clip-path="url(#clip0_272_729)">
        <path
            d="M26.9465 31.0405C28.1192 30.2598 29.0096 29.1224 29.4859 27.7965C29.9622 26.4707 29.9992 25.0267 29.5913 23.6782C29.1835 22.3297 28.3525 21.1482 27.2213 20.3085C26.0901 19.4688 24.7186 19.0154 23.3098 19.0154C21.901 19.0154 20.5295 19.4688 19.3983 20.3085C18.2671 21.1482 17.4361 22.3297 17.0283 23.6782C16.6205 25.0267 16.6574 26.4707 17.1337 27.7965C17.61 29.1224 18.5004 30.2598 19.6731 31.0405C17.5518 31.8224 15.7401 33.2692 14.5084 35.1651C14.4437 35.2613 14.3987 35.3694 14.3761 35.4831C14.3535 35.5969 14.3538 35.714 14.3769 35.8276C14.3999 35.9413 14.4454 36.0492 14.5105 36.1451C14.5757 36.241 14.6592 36.3231 14.7564 36.3864C14.8535 36.4498 14.9622 36.4932 15.0763 36.5141C15.1903 36.5351 15.3074 36.5331 15.4207 36.5084C15.534 36.4838 15.6413 36.4368 15.7363 36.3703C15.8313 36.3038 15.9121 36.219 15.974 36.121C16.7685 34.8991 17.8557 33.8949 19.1368 33.1998C20.4178 32.5047 21.8523 32.1406 23.3098 32.1406C24.7673 32.1406 26.2018 32.5047 27.4829 33.1998C28.7639 33.8949 29.8511 34.8991 30.6456 36.121C30.7739 36.3117 30.9722 36.4443 31.1975 36.4901C31.4228 36.5358 31.657 36.491 31.8496 36.3654C32.0421 36.2398 32.1775 36.0435 32.2265 35.8189C32.2754 35.5943 32.234 35.3594 32.1112 35.1651C30.8795 33.2692 29.0679 31.8224 26.9465 31.0405ZM18.4973 25.5805C18.4973 24.6287 18.7796 23.6983 19.3084 22.9069C19.8372 22.1154 20.5888 21.4986 21.4681 21.1344C22.3475 20.7701 23.3151 20.6748 24.2487 20.8605C25.1822 21.0462 26.0397 21.5045 26.7128 22.1776C27.3858 22.8506 27.8441 23.7081 28.0298 24.6417C28.2155 25.5752 28.1202 26.5428 27.756 27.4222C27.3917 28.3016 26.7749 29.0532 25.9835 29.582C25.1921 30.1108 24.2616 30.393 23.3098 30.393C22.0339 30.3916 20.8107 29.8841 19.9085 28.9819C19.0062 28.0797 18.4988 26.8564 18.4973 25.5805ZM41.4814 36.3758C41.287 36.5026 41.0503 36.5469 40.8232 36.4992C40.5961 36.4514 40.3974 36.3153 40.2706 36.121C39.4771 34.8983 38.39 33.8938 37.1087 33.1989C35.8273 32.5041 34.3924 32.1411 32.9348 32.143C32.7027 32.143 32.4802 32.0508 32.3161 31.8868C32.152 31.7227 32.0598 31.5001 32.0598 31.268C32.0598 31.036 32.152 30.8134 32.3161 30.6493C32.4802 30.4852 32.7027 30.393 32.9348 30.393C33.6435 30.3924 34.3433 30.2352 34.9843 29.9327C35.6252 29.6302 36.1914 29.1899 36.6424 28.6432C37.0935 28.0966 37.4182 27.457 37.5934 26.7703C37.7686 26.0836 37.79 25.3666 37.656 24.6707C37.522 23.9748 37.236 23.317 36.8183 22.7444C36.4006 22.1719 35.8617 21.6986 35.2399 21.3585C34.6181 21.0183 33.9289 20.8197 33.2215 20.7769C32.5141 20.734 31.8059 20.8479 31.1476 21.1104C31.0403 21.1568 30.9247 21.1812 30.8078 21.1822C30.6909 21.1832 30.5749 21.1607 30.4668 21.1161C30.3587 21.0716 30.2607 21.0058 30.1784 20.9226C30.0962 20.8395 30.0314 20.7408 29.988 20.6322C29.9446 20.5236 29.9233 20.4074 29.9256 20.2905C29.9278 20.1736 29.9534 20.0583 30.001 19.9515C30.0485 19.8447 30.117 19.7484 30.2023 19.6685C30.2877 19.5886 30.3882 19.5266 30.4979 19.4862C32.0045 18.8853 33.6803 18.8637 35.2019 19.4255C36.7235 19.9872 37.9831 21.0926 38.7378 22.5283C39.4925 23.9641 39.6888 25.6284 39.2887 27.2003C38.8887 28.7722 37.9207 30.1402 36.5715 31.0405C38.6929 31.8224 40.5045 33.2692 41.7362 35.1651C41.863 35.3594 41.9073 35.5962 41.8595 35.8232C41.8117 36.0503 41.6757 36.2491 41.4814 36.3758Z"
            fill="black" />
    </g>
    <defs>
        <clipPath id="clip0_272_729">
            <rect width="28" height="28" fill="white" transform="translate(14.123 13.768)" />
        </clipPath>
    </defs>
</svg>