<svg width="56" height="56" viewBox="0 0 56 56" fill="none" xmlns="http://www.w3.org/2000/svg">
    <circle cx="28" cy="28" r="27.5" fill="#FAFAFA" stroke="#E3E3E3" />
    <path
        d="M25.1993 37.3337H30.7993C35.466 37.3337 37.3327 35.467 37.3327 30.8003V25.2003C37.3327 20.5337 35.466 18.667 30.7993 18.667H25.1993C20.5327 18.667 18.666 20.5337 18.666 25.2003V30.8003C18.666 35.467 20.5327 37.3337 25.1993 37.3337Z"
        stroke="#12141D" stroke-width="1.5" stroke-linecap="round" stroke-linejoin="round" />
    <path
        d="M26.2493 33.8337H29.7493C32.666 33.8337 33.8327 32.667 33.8327 29.7503V26.2503C33.8327 23.3337 32.666 22.167 29.7493 22.167H26.2493C23.3327 22.167 22.166 23.3337 22.166 26.2503V29.7503C22.166 32.667 23.3327 33.8337 26.2493 33.8337Z"
        stroke="#12141D" stroke-width="1.5" stroke-linecap="round" stroke-linejoin="round" />
    <path d="M23.3457 18.6663V16.333" stroke="#12141D" stroke-width="1.5" stroke-linecap="round"
        stroke-linejoin="round" />
    <path d="M28 18.6663V16.333" stroke="#12141D" stroke-width="1.5" stroke-linecap="round"
        stroke-linejoin="round" />
    <path d="M32.666 18.6663V16.333" stroke="#12141D" stroke-width="1.5" stroke-linecap="round"
        stroke-linejoin="round" />
    <path d="M37.334 23.333H39.6673" stroke="#12141D" stroke-width="1.5" stroke-linecap="round"
        stroke-linejoin="round" />
    <path d="M37.334 28H39.6673" stroke="#12141D" stroke-width="1.5" stroke-linecap="round"
        stroke-linejoin="round" />
    <path d="M37.334 32.667H39.6673" stroke="#12141D" stroke-width="1.5" stroke-linecap="round"
        stroke-linejoin="round" />
    <path d="M32.666 37.333V39.6663" stroke="#12141D" stroke-width="1.5" stroke-linecap="round"
        stroke-linejoin="round" />
    <path d="M28.0117 37.333V39.6663" stroke="#12141D" stroke-width="1.5" stroke-linecap="round"
        stroke-linejoin="round" />
    <path d="M23.3457 37.333V39.6663" stroke="#12141D" stroke-width="1.5" stroke-linecap="round"
        stroke-linejoin="round" />
    <path d="M16.334 23.333H18.6673" stroke="#12141D" stroke-width="1.5" stroke-linecap="round"
        stroke-linejoin="round" />
    <path d="M16.334 28H18.6673" stroke="#12141D" stroke-width="1.5" stroke-linecap="round"
        stroke-linejoin="round" />
    <path d="M16.334 32.667H18.6673" stroke="#12141D" stroke-width="1.5" stroke-linecap="round"
        stroke-linejoin="round" />
</svg>
    