<svg width="56" height="56" viewBox="0 0 56 56" fill="none" xmlns="http://www.w3.org/2000/svg">
    <circle cx="28" cy="28" r="27.5" fill="#FAFAFA" stroke="#E3E3E3" />
    <g clip-path="url(#clip0_272_706)">
        <path
            d="M38.9375 17.675C38.6366 17.4804 38.2926 17.3626 37.9356 17.3321C37.5786 17.3016 37.2195 17.3592 36.89 17.5L26.0925 21.7525C25.8369 21.8565 25.5635 21.91 25.2875 21.91H18.375C17.7948 21.91 17.2384 22.1405 16.8282 22.5507C16.418 22.9609 16.1875 23.5173 16.1875 24.0975V24.2725H14V29.5225H16.1875V29.75C16.2012 30.321 16.4377 30.864 16.8465 31.263C17.2552 31.6619 17.8038 31.8852 18.375 31.885L21 37.45C21.1777 37.8247 21.4576 38.1418 21.8074 38.3646C22.1572 38.5875 22.5627 38.7072 22.9775 38.71H24.08C24.6571 38.7054 25.209 38.4729 25.6155 38.0631C26.022 37.6534 26.25 37.0996 26.25 36.5225V32.095L36.89 36.3475C37.1517 36.4516 37.4308 36.5051 37.7125 36.505C38.1495 36.498 38.575 36.3642 38.9375 36.12C39.2253 35.9257 39.4628 35.6656 39.6301 35.3613C39.7975 35.0569 39.89 34.7172 39.9 34.37V19.4775C39.8984 19.1214 39.8099 18.7711 39.6421 18.457C39.4744 18.1428 39.2325 17.8744 38.9375 17.675ZM24.0625 24.0975V29.75H18.375V24.0975H24.0625ZM24.0625 36.5225H22.96L20.8075 31.885H24.0625V36.5225ZM26.8975 30.0125C26.6897 29.9063 26.4731 29.8185 26.25 29.75V23.975C26.4709 23.9294 26.6875 23.865 26.8975 23.7825L37.7125 19.4775V34.3175L26.8975 30.0125ZM39.9525 24.71V29.085C40.5327 29.085 41.0891 28.8545 41.4993 28.4443C41.9095 28.0341 42.14 27.4777 42.14 26.8975C42.14 26.3173 41.9095 25.7609 41.4993 25.3507C41.0891 24.9405 40.5327 24.71 39.9525 24.71Z"
            fill="#12141D" />
    </g>
    <defs>
        <clipPath id="clip0_272_706">
            <rect width="28" height="28" fill="white" transform="translate(14 14)" />
        </clipPath>
    </defs>
</svg>
    