<svg width="56" height="56" viewBox="0 0 56 56" fill="none" xmlns="http://www.w3.org/2000/svg">
    <circle cx="28" cy="28" r="27.5" fill="#FAFAFA" stroke="#E3E3E3" />
    <path
        d="M37.3333 30.3337C38.622 30.3337 39.6667 29.289 39.6667 28.0003C39.6667 26.7117 38.622 25.667 37.3333 25.667C36.0447 25.667 35 26.7117 35 28.0003C35 29.289 36.0447 30.3337 37.3333 30.3337Z"
        stroke="#12141D" stroke-width="1.5" stroke-linecap="round" stroke-linejoin="round" />
    <path
        d="M37.3333 20.9997C38.622 20.9997 39.6667 19.955 39.6667 18.6663C39.6667 17.3777 38.622 16.333 37.3333 16.333C36.0447 16.333 35 17.3777 35 18.6663C35 19.955 36.0447 20.9997 37.3333 20.9997Z"
        stroke="#12141D" stroke-width="1.5" stroke-linecap="round" stroke-linejoin="round" />
    <path
        d="M37.3333 39.6667C38.622 39.6667 39.6667 38.622 39.6667 37.3333C39.6667 36.0447 38.622 35 37.3333 35C36.0447 35 35 36.0447 35 37.3333C35 38.622 36.0447 39.6667 37.3333 39.6667Z"
        stroke="#12141D" stroke-width="1.5" stroke-linecap="round" stroke-linejoin="round" />
    <path
        d="M18.6673 30.3337C19.956 30.3337 21.0007 29.289 21.0007 28.0003C21.0007 26.7117 19.956 25.667 18.6673 25.667C17.3787 25.667 16.334 26.7117 16.334 28.0003C16.334 29.289 17.3787 30.3337 18.6673 30.3337Z"
        stroke="#12141D" stroke-width="1.5" stroke-linecap="round" stroke-linejoin="round" />
    <path d="M21 28H35" stroke="#12141D" stroke-width="1.5" stroke-linecap="round"
        stroke-linejoin="round" />
    <path
        d="M35.0007 18.667H30.334C28.0007 18.667 26.834 19.8337 26.834 22.167V33.8337C26.834 36.167 28.0007 37.3337 30.334 37.3337H35.0007"
        stroke="#12141D" stroke-width="1.5" stroke-linecap="round" stroke-linejoin="round" />
</svg>
    