<svg width="56" height="56" viewBox="0 0 56 56" fill="none" xmlns="http://www.w3.org/2000/svg">
    <circle cx="28" cy="28" r="27.5" fill="#FAFAFA" stroke="#E3E3E3" />
    <path
        d="M39.375 19.25H31.5C30.8208 19.25 30.1509 19.4081 29.5434 19.7119C28.9359 20.0156 28.4075 20.4566 28 21C27.5925 20.4566 27.0641 20.0156 26.4566 19.7119C25.8491 19.4081 25.1792 19.25 24.5 19.25H16.625C16.3929 19.25 16.1704 19.3422 16.0063 19.5063C15.8422 19.6704 15.75 19.8929 15.75 20.125V35.875C15.75 36.1071 15.8422 36.3296 16.0063 36.4937C16.1704 36.6578 16.3929 36.75 16.625 36.75H24.5C25.1962 36.75 25.8639 37.0266 26.3562 37.5188C26.8484 38.0111 27.125 38.6788 27.125 39.375C27.125 39.6071 27.2172 39.8296 27.3813 39.9937C27.5454 40.1578 27.7679 40.25 28 40.25C28.2321 40.25 28.4546 40.1578 28.6187 39.9937C28.7828 39.8296 28.875 39.6071 28.875 39.375C28.875 38.6788 29.1516 38.0111 29.6438 37.5188C30.1361 37.0266 30.8038 36.75 31.5 36.75H39.375C39.6071 36.75 39.8296 36.6578 39.9937 36.4937C40.1578 36.3296 40.25 36.1071 40.25 35.875V20.125C40.25 19.8929 40.1578 19.6704 39.9937 19.5063C39.8296 19.3422 39.6071 19.25 39.375 19.25ZM24.5 35H17.5V21H24.5C25.1962 21 25.8639 21.2766 26.3562 21.7688C26.8484 22.2611 27.125 22.9288 27.125 23.625V35.875C26.3684 35.3057 25.4469 34.9985 24.5 35ZM38.5 35H31.5C30.5531 34.9985 29.6316 35.3057 28.875 35.875V23.625C28.875 22.9288 29.1516 22.2611 29.6438 21.7688C30.1361 21.2766 30.8038 21 31.5 21H38.5V35Z"
        fill="black" />
</svg>