<svg width="56" height="56" viewBox="0 0 56 56" fill="none" xmlns="http://www.w3.org/2000/svg">
    <circle cx="28" cy="28" r="27.5" fill="#FAFAFA" stroke="#E3E3E3" />
    <path
        d="M39.375 38.5H36.75V17.5H37.625C37.8571 17.5 38.0796 17.4078 38.2437 17.2437C38.4078 17.0796 38.5 16.8571 38.5 16.625C38.5 16.3929 38.4078 16.1704 38.2437 16.0063C38.0796 15.8422 37.8571 15.75 37.625 15.75H18.375C18.1429 15.75 17.9204 15.8422 17.7563 16.0063C17.5922 16.1704 17.5 16.3929 17.5 16.625C17.5 16.8571 17.5922 17.0796 17.7563 17.2437C17.9204 17.4078 18.1429 17.5 18.375 17.5H19.25V38.5H16.625C16.3929 38.5 16.1704 38.5922 16.0063 38.7563C15.8422 38.9204 15.75 39.1429 15.75 39.375C15.75 39.6071 15.8422 39.8296 16.0063 39.9937C16.1704 40.1578 16.3929 40.25 16.625 40.25H39.375C39.6071 40.25 39.8296 40.1578 39.9937 39.9937C40.1578 39.8296 40.25 39.6071 40.25 39.375C40.25 39.1429 40.1578 38.9204 39.9937 38.7563C39.8296 38.5922 39.6071 38.5 39.375 38.5ZM21 17.5H35V38.5H31.5V34.125C31.5 33.8929 31.4078 33.6704 31.2437 33.5063C31.0796 33.3422 30.8571 33.25 30.625 33.25H25.375C25.1429 33.25 24.9204 33.3422 24.7563 33.5063C24.5922 33.6704 24.5 33.8929 24.5 34.125V38.5H21V17.5ZM29.75 38.5H26.25V35H29.75V38.5ZM23.625 21C23.625 20.7679 23.7172 20.5454 23.8813 20.3813C24.0454 20.2172 24.2679 20.125 24.5 20.125H26.25C26.4821 20.125 26.7046 20.2172 26.8687 20.3813C27.0328 20.5454 27.125 20.7679 27.125 21C27.125 21.2321 27.0328 21.4546 26.8687 21.6187C26.7046 21.7828 26.4821 21.875 26.25 21.875H24.5C24.2679 21.875 24.0454 21.7828 23.8813 21.6187C23.7172 21.4546 23.625 21.2321 23.625 21ZM28.875 21C28.875 20.7679 28.9672 20.5454 29.1313 20.3813C29.2954 20.2172 29.5179 20.125 29.75 20.125H31.5C31.7321 20.125 31.9546 20.2172 32.1187 20.3813C32.2828 20.5454 32.375 20.7679 32.375 21C32.375 21.2321 32.2828 21.4546 32.1187 21.6187C31.9546 21.7828 31.7321 21.875 31.5 21.875H29.75C29.5179 21.875 29.2954 21.7828 29.1313 21.6187C28.9672 21.4546 28.875 21.2321 28.875 21ZM23.625 25.375C23.625 25.1429 23.7172 24.9204 23.8813 24.7563C24.0454 24.5922 24.2679 24.5 24.5 24.5H26.25C26.4821 24.5 26.7046 24.5922 26.8687 24.7563C27.0328 24.9204 27.125 25.1429 27.125 25.375C27.125 25.6071 27.0328 25.8296 26.8687 25.9937C26.7046 26.1578 26.4821 26.25 26.25 26.25H24.5C24.2679 26.25 24.0454 26.1578 23.8813 25.9937C23.7172 25.8296 23.625 25.6071 23.625 25.375ZM28.875 25.375C28.875 25.1429 28.9672 24.9204 29.1313 24.7563C29.2954 24.5922 29.5179 24.5 29.75 24.5H31.5C31.7321 24.5 31.9546 24.5922 32.1187 24.7563C32.2828 24.9204 32.375 25.1429 32.375 25.375C32.375 25.6071 32.2828 25.8296 32.1187 25.9937C31.9546 26.1578 31.7321 26.25 31.5 26.25H29.75C29.5179 26.25 29.2954 26.1578 29.1313 25.9937C28.9672 25.8296 28.875 25.6071 28.875 25.375ZM23.625 29.75C23.625 29.5179 23.7172 29.2954 23.8813 29.1313C24.0454 28.9672 24.2679 28.875 24.5 28.875H26.25C26.4821 28.875 26.7046 28.9672 26.8687 29.1313C27.0328 29.2954 27.125 29.5179 27.125 29.75C27.125 29.9821 27.0328 30.2046 26.8687 30.3687C26.7046 30.5328 26.4821 30.625 26.25 30.625H24.5C24.2679 30.625 24.0454 30.5328 23.8813 30.3687C23.7172 30.2046 23.625 29.9821 23.625 29.75ZM28.875 29.75C28.875 29.5179 28.9672 29.2954 29.1313 29.1313C29.2954 28.9672 29.5179 28.875 29.75 28.875H31.5C31.7321 28.875 31.9546 28.9672 32.1187 29.1313C32.2828 29.2954 32.375 29.5179 32.375 29.75C32.375 29.9821 32.2828 30.2046 32.1187 30.3687C31.9546 30.5328 31.7321 30.625 31.5 30.625H29.75C29.5179 30.625 29.2954 30.5328 29.1313 30.3687C28.9672 30.2046 28.875 29.9821 28.875 29.75Z"
        fill="black" />
</svg>