<svg width="154" height="150" viewBox="0 0 154 150" fill="none" xmlns="http://www.w3.org/2000/svg">
    <circle cx="75" cy="75" r="75" fill="black" />
    <circle cx="134" cy="32" r="18.5" fill="black" stroke="white" stroke-width="3" />
    <path
        d="M136.472 25.9091V39H134.49V27.8906H134.414L131.282 29.9361V28.044L134.548 25.9091H136.472Z"
        fill="#FAFAFA" />
    <g clip-path="url(#clip0_267_5869)">
        <path
            d="M73.2759 79.9106C75.1187 78.6837 76.5179 76.8964 77.2663 74.8128C78.0148 72.7293 78.0729 70.4602 77.432 68.3412C76.7912 66.2221 75.4854 64.3655 73.7077 63.0459C71.9301 61.7263 69.7749 61.0139 67.5611 61.0139C65.3472 61.0139 63.1921 61.7263 61.4144 63.0459C59.6368 64.3655 58.331 66.2221 57.6901 68.3412C57.0492 70.4602 57.1073 72.7293 57.8558 74.8128C58.6043 76.8964 60.0034 78.6837 61.8462 79.9106C58.5127 81.1392 55.6658 83.4128 53.7303 86.392C53.6286 86.5432 53.5579 86.7131 53.5224 86.8918C53.4869 87.0705 53.4873 87.2545 53.5236 87.4331C53.5598 87.6117 53.6312 87.7813 53.7336 87.932C53.836 88.0828 53.9673 88.2117 54.1199 88.3112C54.2726 88.4108 54.4434 88.479 54.6227 88.5119C54.8019 88.5448 54.9859 88.5418 55.1639 88.503C55.342 88.4642 55.5105 88.3904 55.6598 88.2859C55.809 88.1814 55.936 88.0482 56.0334 87.8942C57.2819 85.974 58.9903 84.396 61.0034 83.3037C63.0165 82.2114 65.2707 81.6392 67.5611 81.6392C69.8515 81.6392 72.1056 82.2114 74.1187 83.3037C76.1319 84.396 77.8402 85.974 79.0887 87.8942C79.2904 88.1939 79.6019 88.4022 79.956 88.4741C80.31 88.546 80.6781 88.4756 80.9807 88.2783C81.2833 88.0809 81.4961 87.7724 81.573 87.4194C81.6499 87.0664 81.5849 86.6974 81.3918 86.392C79.4563 83.4128 76.6094 81.1392 73.2759 79.9106ZM59.9986 71.3306C59.9986 69.8348 60.4421 68.3727 61.2731 67.1291C62.104 65.8854 63.2851 64.9161 64.667 64.3437C66.0489 63.7713 67.5694 63.6216 69.0364 63.9134C70.5034 64.2052 71.8509 64.9254 72.9086 65.9831C73.9662 67.0407 74.6864 68.3882 74.9782 69.8552C75.27 71.3222 75.1203 72.8427 74.5479 74.2246C73.9755 75.6065 73.0062 76.7876 71.7626 77.6186C70.5189 78.4495 69.0568 78.8931 67.5611 78.8931C65.5561 78.8908 63.6338 78.0933 62.2161 76.6756C60.7983 75.2578 60.0008 73.3356 59.9986 71.3306ZM96.1164 88.2946C95.8109 88.4938 95.4389 88.5635 95.0821 88.4884C94.7253 88.4133 94.4129 88.1995 94.2137 87.8942C92.9667 85.9728 91.2586 84.3942 89.245 83.3023C87.2315 82.2104 84.9766 81.64 82.6861 81.6431C82.3214 81.6431 81.9717 81.4982 81.7138 81.2403C81.4559 80.9825 81.3111 80.6327 81.3111 80.2681C81.3111 79.9034 81.4559 79.5537 81.7138 79.2958C81.9717 79.0379 82.3214 78.8931 82.6861 78.8931C83.7998 78.892 84.8995 78.645 85.9066 78.1697C86.9138 77.6943 87.8036 77.0024 88.5123 76.1434C89.2211 75.2843 89.7314 74.2793 90.0067 73.2002C90.282 72.1211 90.3156 70.9944 90.105 69.9008C89.8945 68.8072 89.445 67.7736 88.7887 66.8738C88.1324 65.9741 87.2854 65.2304 86.3083 64.6959C85.3313 64.1614 84.2482 63.8493 83.1366 63.7819C82.0249 63.7145 80.9121 63.8935 79.8776 64.306C79.709 64.379 79.5274 64.4173 79.3436 64.4189C79.1599 64.4204 78.9777 64.3851 78.8078 64.3151C78.6379 64.245 78.4838 64.1416 78.3546 64.011C78.2254 63.8804 78.1236 63.7252 78.0554 63.5546C77.9871 63.384 77.9538 63.2014 77.9573 63.0177C77.9608 62.834 78.0011 62.6528 78.0758 62.4849C78.1505 62.3171 78.2581 62.1658 78.3922 62.0403C78.5263 61.9147 78.6843 61.8172 78.8567 61.7537C81.2242 60.8095 83.8575 60.7755 86.2486 61.6583C88.6397 62.5411 90.6191 64.2781 91.8051 66.5343C92.991 68.7904 93.2994 71.4058 92.6708 73.8759C92.0422 76.346 90.5211 78.4958 88.4009 79.9106C91.7344 81.1392 94.5813 83.4128 96.5168 86.392C96.716 86.6974 96.7857 87.0694 96.7106 87.4262C96.6355 87.783 96.4218 88.0954 96.1164 88.2946Z"
            fill="white" />
    </g>
    <defs>
        <clipPath id="clip0_267_5869">
            <rect width="44" height="44" fill="white" transform="translate(53.123 52.7681)" />
        </clipPath>
    </defs>
</svg>