<svg width="154" height="150" viewBox="0 0 154 150" fill="none" xmlns="http://www.w3.org/2000/svg">
    <circle cx="75" cy="75" r="75" fill="#0C0E0F" />
    <circle cx="134" cy="32" r="18.5" fill="#0C0E0F" stroke="white" stroke-width="3" />
    <path
        d="M129.74 39V37.5682L134.169 32.9787C134.642 32.4801 135.032 32.0433 135.339 31.6683C135.65 31.2891 135.882 30.929 136.036 30.5881C136.189 30.2472 136.266 29.8849 136.266 29.5014C136.266 29.0668 136.164 28.6918 135.959 28.3764C135.755 28.0568 135.475 27.8118 135.122 27.6413C134.768 27.4666 134.37 27.3793 133.926 27.3793C133.458 27.3793 133.049 27.4751 132.699 27.6669C132.35 27.8587 132.081 28.1293 131.894 28.4787C131.706 28.8281 131.613 29.2372 131.613 29.706H129.727C129.727 28.9091 129.91 28.2124 130.277 27.6158C130.643 27.0192 131.146 26.5568 131.785 26.2287C132.424 25.8963 133.151 25.7301 133.965 25.7301C134.787 25.7301 135.512 25.8942 136.138 26.2223C136.769 26.5462 137.261 26.9893 137.615 27.5518C137.968 28.1101 138.145 28.7408 138.145 29.4439C138.145 29.9297 138.054 30.4048 137.87 30.8693C137.691 31.3338 137.378 31.8516 136.931 32.4226C136.483 32.9893 135.861 33.6776 135.064 34.4872L132.463 37.2102V37.3061H138.356V39H129.74Z"
        fill="#FAFAFA" />
    <path
        d="M92.875 61.25H80.5C79.4327 61.25 78.38 61.4985 77.4254 61.9758C76.4708 62.4531 75.6404 63.1462 75 64C74.3596 63.1462 73.5292 62.4531 72.5746 61.9758C71.62 61.4985 70.5673 61.25 69.5 61.25H57.125C56.7603 61.25 56.4106 61.3949 56.1527 61.6527C55.8949 61.9106 55.75 62.2603 55.75 62.625V87.375C55.75 87.7397 55.8949 88.0894 56.1527 88.3473C56.4106 88.6051 56.7603 88.75 57.125 88.75H69.5C70.594 88.75 71.6432 89.1846 72.4168 89.9582C73.1904 90.7318 73.625 91.781 73.625 92.875C73.625 93.2397 73.7699 93.5894 74.0277 93.8473C74.2856 94.1051 74.6353 94.25 75 94.25C75.3647 94.25 75.7144 94.1051 75.9723 93.8473C76.2301 93.5894 76.375 93.2397 76.375 92.875C76.375 91.781 76.8096 90.7318 77.5832 89.9582C78.3568 89.1846 79.406 88.75 80.5 88.75H92.875C93.2397 88.75 93.5894 88.6051 93.8473 88.3473C94.1051 88.0894 94.25 87.7397 94.25 87.375V62.625C94.25 62.2603 94.1051 61.9106 93.8473 61.6527C93.5894 61.3949 93.2397 61.25 92.875 61.25ZM69.5 86H58.5V64H69.5C70.594 64 71.6432 64.4346 72.4168 65.2082C73.1904 65.9818 73.625 67.031 73.625 68.125V87.375C72.4361 86.4803 70.9879 85.9976 69.5 86ZM91.5 86H80.5C79.0121 85.9976 77.5639 86.4803 76.375 87.375V68.125C76.375 67.031 76.8096 65.9818 77.5832 65.2082C78.3568 64.4346 79.406 64 80.5 64H91.5V86Z"
        fill="white" />
</svg>