<svg width="155" height="150" viewBox="0 0 155 150" fill="none" xmlns="http://www.w3.org/2000/svg">
    <circle cx="75.5" cy="75" r="75" fill="#12141D" />
    <circle cx="134.5" cy="32" r="18.5" fill="#12141D" stroke="white" stroke-width="3" />
    <path
        d="M134.516 39.179C133.638 39.179 132.854 39.0277 132.164 38.7251C131.478 38.4226 130.934 38.0028 130.534 37.4659C130.137 36.9247 129.924 36.2983 129.895 35.5866H131.902C131.927 35.9744 132.057 36.3111 132.292 36.5966C132.53 36.8778 132.841 37.0952 133.225 37.2486C133.608 37.402 134.034 37.4787 134.503 37.4787C135.019 37.4787 135.475 37.3892 135.871 37.2102C136.272 37.0312 136.585 36.782 136.811 36.4624C137.037 36.1385 137.15 35.7656 137.15 35.3438C137.15 34.9048 137.037 34.5192 136.811 34.1868C136.589 33.8501 136.263 33.5859 135.833 33.3942C135.407 33.2024 134.891 33.1065 134.286 33.1065H133.18V31.4957H134.286C134.772 31.4957 135.198 31.4084 135.564 31.2337C135.935 31.0589 136.225 30.8161 136.434 30.505C136.642 30.1896 136.747 29.821 136.747 29.3991C136.747 28.9943 136.655 28.6428 136.472 28.3445C136.293 28.0419 136.037 27.8054 135.705 27.6349C135.377 27.4645 134.989 27.3793 134.542 27.3793C134.115 27.3793 133.717 27.4581 133.346 27.6158C132.98 27.7692 132.681 27.9908 132.451 28.2805C132.221 28.5661 132.098 28.9091 132.081 29.3097H130.169C130.191 28.6023 130.4 27.9801 130.796 27.4432C131.196 26.9062 131.725 26.4865 132.381 26.1839C133.037 25.8814 133.766 25.7301 134.567 25.7301C135.407 25.7301 136.131 25.8942 136.74 26.2223C137.354 26.5462 137.827 26.9787 138.159 27.5199C138.496 28.0611 138.662 28.6534 138.658 29.2969C138.662 30.0298 138.458 30.652 138.044 31.1634C137.635 31.6747 137.09 32.0178 136.408 32.1925V32.2947C137.277 32.4268 137.951 32.772 138.428 33.3303C138.909 33.8885 139.148 34.581 139.144 35.4077C139.148 36.1278 138.948 36.7734 138.543 37.3445C138.142 37.9155 137.595 38.3651 136.9 38.6932C136.206 39.017 135.411 39.179 134.516 39.179Z"
        fill="#FAFAFA" />
    <path
        d="M63.9233 84.1C64.0678 84.2086 64.2323 84.2877 64.4074 84.3326C64.5825 84.3776 64.7647 84.3876 64.9437 84.362C65.1226 84.3365 65.2948 84.2759 65.4503 84.1838C65.6058 84.0916 65.7416 83.9697 65.85 83.825C66.6825 82.715 67.762 81.8141 69.003 81.1936C70.244 80.573 71.6125 80.25 73 80.25C74.3875 80.25 75.756 80.573 76.997 81.1936C78.238 81.8141 79.3175 82.715 80.15 83.825C80.2583 83.9695 80.3941 84.0912 80.5494 84.1832C80.7048 84.2751 80.8768 84.3356 81.0555 84.3612C81.2343 84.3867 81.4163 84.3768 81.5912 84.332C81.7662 84.2872 81.9305 84.2083 82.075 84.1C82.2195 83.9917 82.3412 83.8559 82.4332 83.7006C82.5251 83.5452 82.5856 83.3732 82.6112 83.1945C82.6367 83.0157 82.6268 82.8337 82.582 82.6588C82.5372 82.4838 82.4583 82.3195 82.35 82.175C81.1325 80.5426 79.5089 79.2574 77.6406 78.447C78.6645 77.5123 79.3818 76.2898 79.6984 74.9401C80.0151 73.5904 79.9163 72.1764 79.415 70.8839C78.9137 69.5913 78.0333 68.4805 76.8894 67.6972C75.7455 66.914 74.3915 66.4948 73.0052 66.4948C71.6188 66.4948 70.2648 66.914 69.1209 67.6972C67.977 68.4805 67.0966 69.5913 66.5953 70.8839C66.094 72.1764 65.9952 73.5904 66.3119 74.9401C66.6285 76.2898 67.3458 77.5123 68.3697 78.447C66.4977 79.2559 64.8704 80.5412 63.65 82.175C63.431 82.4665 63.3368 82.8331 63.388 83.1941C63.4393 83.5551 63.6318 83.8809 63.9233 84.1ZM73 69.25C73.8158 69.25 74.6134 69.4919 75.2917 69.9452C75.9701 70.3984 76.4988 71.0427 76.811 71.7964C77.1232 72.5502 77.2049 73.3796 77.0457 74.1797C76.8866 74.9799 76.4937 75.7149 75.9168 76.2918C75.3399 76.8687 74.6049 77.2616 73.8047 77.4207C73.0046 77.5799 72.1752 77.4982 71.4214 77.186C70.6677 76.8738 70.0234 76.3451 69.5702 75.6667C69.1169 74.9884 68.875 74.1908 68.875 73.375C68.875 72.281 69.3096 71.2318 70.0832 70.4582C70.8568 69.6846 71.906 69.25 73 69.25ZM85.375 54.125H60.625C59.8957 54.125 59.1962 54.4147 58.6805 54.9305C58.1647 55.4462 57.875 56.1457 57.875 56.875V87.125C57.875 87.8543 58.1647 88.5538 58.6805 89.0695C59.1962 89.5853 59.8957 89.875 60.625 89.875H85.375C86.1043 89.875 86.8038 89.5853 87.3195 89.0695C87.8353 88.5538 88.125 87.8543 88.125 87.125V56.875C88.125 56.1457 87.8353 55.4462 87.3195 54.9305C86.8038 54.4147 86.1043 54.125 85.375 54.125ZM85.375 87.125H60.625V56.875H85.375V87.125ZM66.125 61C66.125 60.6353 66.2699 60.2856 66.5277 60.0277C66.7856 59.7699 67.1353 59.625 67.5 59.625H78.5C78.8647 59.625 79.2144 59.7699 79.4723 60.0277C79.7301 60.2856 79.875 60.6353 79.875 61C79.875 61.3647 79.7301 61.7144 79.4723 61.9723C79.2144 62.2301 78.8647 62.375 78.5 62.375H67.5C67.1353 62.375 66.7856 62.2301 66.5277 61.9723C66.2699 61.7144 66.125 61.3647 66.125 61Z"
        fill="white" />
</svg>