<svg width="32" height="32" viewBox="0 0 32 32" fill="none" xmlns="http://www.w3.org/2000/svg">
    <rect width="32" height="32" rx="4.07" fill="#4B57E2" />
    <rect width="32" height="32" rx="4.07" fill="url(#paint0_linear_216_668)" />
    <path
        d="M23.3194 11.7923C22.8412 10.9679 21.5794 10.7823 19.6631 11.2511C18.776 10.5651 17.7142 10.1417 16.5985 10.0289C15.4827 9.91617 14.3577 10.1186 13.3512 10.6132C12.3448 11.1078 11.4972 11.8748 10.9048 12.827C10.3124 13.7791 9.99893 14.8784 9.99999 15.9998C10.0001 16.257 10.0163 16.514 10.0487 16.7692C8.31811 18.5623 8.34311 19.6248 8.68124 20.2073C8.99999 20.7598 9.66499 20.9998 10.54 20.9998C11.1475 20.9873 11.7514 20.9033 12.3394 20.7498C13.2266 21.4351 14.2882 21.8579 15.4037 21.9703C16.5192 22.0826 17.6438 21.8799 18.6498 21.3852C19.6559 20.8905 20.5031 20.1237 21.0953 19.1718C21.6875 18.2198 22.0009 17.1209 22 15.9998C22.0001 15.7439 21.984 15.4881 21.9519 15.2342C22.7331 14.4217 23.2531 13.6498 23.43 12.9892C23.5519 12.5317 23.515 12.1292 23.3194 11.7923ZM16 10.9998C17.1325 11.001 18.2311 11.386 19.1165 12.0921C20.0019 12.7981 20.6218 13.7835 20.875 14.8873C19.8087 15.8911 18.3656 16.9204 16.9956 17.7079C15.2737 18.6961 13.78 19.3123 12.5887 19.6498C11.855 18.9655 11.3443 18.0762 11.1232 17.0976C10.902 16.119 10.9805 15.0964 11.3486 14.1631C11.7167 13.2298 12.3572 12.4289 13.1868 11.8647C14.0164 11.3005 14.9967 10.9991 16 10.9998ZM9.54624 19.7054C9.45499 19.5486 9.50561 19.2529 9.68499 18.8929C9.86237 18.5556 10.0782 18.24 10.3281 17.9523C10.5759 18.6701 10.9576 19.3344 11.4531 19.9098C10.375 20.0911 9.70249 19.9754 9.54624 19.7054ZM16 20.9998C15.1569 21.0007 14.3276 20.7869 13.59 20.3786C14.9438 19.8998 16.2501 19.2959 17.4919 18.5748C18.8406 17.8004 20.0344 16.9611 20.9962 16.1323C20.9606 17.4343 20.4188 18.6711 19.4859 19.58C18.553 20.4888 17.3024 20.9982 16 20.9998ZM22.4637 12.7304C22.3575 13.1248 22.0769 13.5761 21.6744 14.0511C21.4273 13.3324 21.0454 12.6674 20.5494 12.0917C21.4375 11.9448 22.26 11.9561 22.4556 12.2942C22.5119 12.3923 22.515 12.5392 22.4637 12.7304Z"
        fill="white" />
    <defs>
        <linearGradient id="paint0_linear_216_668" x1="16" y1="0" x2="16" y2="32"
            gradientUnits="userSpaceOnUse">
            <stop stop-color="#5499FF" />
            <stop offset="1" stop-color="#4B57E2" stop-opacity="0.9" />
        </linearGradient>
    </defs>
</svg>
    