<svg width="32" height="32" viewBox="0 0 32 32" fill="none" xmlns="http://www.w3.org/2000/svg">
    <rect width="32" height="32" rx="4.07" fill="#4B57E2" />
    <rect width="32" height="32" rx="4.07" fill="url(#paint0_linear_216_658)" />
    <path
        d="M15.3284 17.8699C15.9985 17.4238 16.5073 16.7739 16.7795 16.0162C17.0516 15.2586 17.0728 14.4335 16.8397 13.6629C16.6067 12.8923 16.1318 12.2172 15.4854 11.7373C14.839 11.2575 14.0553 10.9984 13.2503 10.9984C12.4452 10.9984 11.6616 11.2575 11.0151 11.7373C10.3687 12.2172 9.89388 12.8923 9.66083 13.6629C9.42779 14.4335 9.44892 15.2586 9.72109 16.0162C9.99326 16.7739 10.502 17.4238 11.1722 17.8699C9.95996 18.3167 8.92472 19.1435 8.2209 20.2268C8.18391 20.2818 8.15822 20.3436 8.14531 20.4086C8.13241 20.4736 8.13255 20.5405 8.14574 20.6054C8.15892 20.6703 8.18488 20.732 8.22211 20.7868C8.25934 20.8416 8.30709 20.8885 8.36259 20.9247C8.41809 20.9609 8.48023 20.9857 8.54541 20.9977C8.61058 21.0097 8.67748 21.0086 8.74222 20.9945C8.80697 20.9803 8.86826 20.9535 8.92254 20.9155C8.97682 20.8775 9.023 20.8291 9.0584 20.7731C9.51239 20.0748 10.1336 19.501 10.8657 19.1038C11.5977 18.7066 12.4174 18.4985 13.2503 18.4985C14.0831 18.4985 14.9028 18.7066 15.6349 19.1038C16.3669 19.501 16.9882 20.0748 17.4422 20.7731C17.5155 20.8821 17.6288 20.9578 17.7575 20.9839C17.8863 21.0101 18.0201 20.9845 18.1301 20.9127C18.2402 20.841 18.3175 20.7288 18.3455 20.6004C18.3735 20.4721 18.3498 20.3379 18.2797 20.2268C17.5758 19.1435 16.5406 18.3167 15.3284 17.8699ZM10.5003 14.7499C10.5003 14.206 10.6616 13.6744 10.9637 13.2221C11.2659 12.7699 11.6954 12.4174 12.1979 12.2093C12.7004 12.0011 13.2533 11.9467 13.7868 12.0528C14.3202 12.1589 14.8102 12.4208 15.1948 12.8054C15.5794 13.19 15.8413 13.68 15.9474 14.2134C16.0535 14.7469 15.9991 15.2998 15.7909 15.8023C15.5828 16.3048 15.2303 16.7343 14.7781 17.0365C14.3259 17.3386 13.7942 17.4999 13.2503 17.4999C12.5212 17.4991 11.8222 17.2091 11.3066 16.6936C10.7911 16.178 10.5011 15.479 10.5003 14.7499ZM23.634 20.9187C23.523 20.9911 23.3877 21.0165 23.2579 20.9891C23.1282 20.9618 23.0146 20.8841 22.9422 20.7731C22.4887 20.0744 21.8676 19.5003 21.1354 19.1033C20.4032 18.7062 19.5832 18.4988 18.7503 18.4999C18.6177 18.4999 18.4905 18.4473 18.3967 18.3535C18.303 18.2597 18.2503 18.1325 18.2503 17.9999C18.2503 17.8673 18.303 17.7401 18.3967 17.6464C18.4905 17.5526 18.6177 17.4999 18.7503 17.4999C19.1553 17.4996 19.5552 17.4097 19.9214 17.2369C20.2876 17.064 20.6112 16.8124 20.8689 16.5C21.1266 16.1877 21.3122 15.8222 21.4123 15.4298C21.5124 15.0374 21.5247 14.6277 21.4481 14.23C21.3715 13.8323 21.2081 13.4565 20.9694 13.1293C20.7307 12.8021 20.4228 12.5317 20.0675 12.3373C19.7122 12.143 19.3183 12.0295 18.9141 12.005C18.5099 11.9805 18.1052 12.0455 17.729 12.1956C17.6677 12.2221 17.6017 12.236 17.5348 12.2366C17.468 12.2372 17.4018 12.2243 17.34 12.1988C17.2782 12.1734 17.2222 12.1358 17.1752 12.0883C17.1282 12.0408 17.0912 11.9843 17.0664 11.9223C17.0416 11.8603 17.0294 11.7939 17.0307 11.7271C17.032 11.6603 17.0466 11.5944 17.0738 11.5333C17.101 11.4723 17.1401 11.4173 17.1889 11.3716C17.2376 11.326 17.2951 11.2905 17.3578 11.2674C18.2187 10.9241 19.1763 10.9117 20.0457 11.2328C20.9152 11.5538 21.635 12.1854 22.0663 13.0058C22.4975 13.8262 22.6097 14.7773 22.3811 15.6755C22.1525 16.5737 21.5994 17.3555 20.8284 17.8699C22.0406 18.3167 23.0758 19.1435 23.7797 20.2268C23.8521 20.3379 23.8774 20.4732 23.8501 20.6029C23.8228 20.7327 23.7451 20.8462 23.634 20.9187Z"
        fill="white" />
    <defs>
        <linearGradient id="paint0_linear_216_658" x1="16" y1="0" x2="16" y2="32"
            gradientUnits="userSpaceOnUse">
            <stop stop-color="#5499FF" />
            <stop offset="1" stop-color="#4B57E2" stop-opacity="0.9" />
        </linearGradient>
    </defs>
</svg>
    
   