<svg width="32" height="32" viewBox="0 0 32 32" fill="none" xmlns="http://www.w3.org/2000/svg">
    <rect width="32" height="32" rx="4.07" fill="#4B57E2" />
    <rect width="32" height="32" rx="4.07" fill="url(#paint0_linear_216_698)" />
    <path
        d="M21.0049 10.495H11.0049C10.7397 10.495 10.4853 10.6004 10.2978 10.7879C10.1102 10.9754 10.0049 11.2298 10.0049 11.495V14.995C10.0049 18.29 11.5999 20.2869 12.938 21.3819C14.3793 22.5606 15.813 22.9606 15.8755 22.9775C15.9614 23.0009 16.0521 23.0009 16.138 22.9775C16.2005 22.9606 17.6324 22.5606 19.0755 21.3819C20.4099 20.2869 22.0049 18.29 22.0049 14.995V11.495C22.0049 11.2298 21.8995 10.9754 21.712 10.7879C21.5245 10.6004 21.2701 10.495 21.0049 10.495ZM21.0049 14.995C21.0049 17.3119 20.1511 19.1925 18.4674 20.5837C17.7344 21.1873 16.9009 21.657 16.0049 21.9712C15.1206 21.6625 14.2974 21.2011 13.5724 20.6081C11.8686 19.2144 11.0049 17.3262 11.0049 14.995V11.495H21.0049V14.995ZM13.1511 16.8487C13.0573 16.7549 13.0046 16.6277 13.0046 16.495C13.0046 16.3623 13.0573 16.2351 13.1511 16.1412C13.245 16.0474 13.3722 15.9947 13.5049 15.9947C13.6376 15.9947 13.7648 16.0474 13.8586 16.1412L15.0049 17.2881L18.1511 14.1412C18.1976 14.0948 18.2527 14.0579 18.3134 14.0328C18.3741 14.0077 18.4392 13.9947 18.5049 13.9947C18.5706 13.9947 18.6356 14.0077 18.6963 14.0328C18.757 14.0579 18.8122 14.0948 18.8586 14.1412C18.9051 14.1877 18.9419 14.2429 18.9671 14.3035C18.9922 14.3642 19.0052 14.4293 19.0052 14.495C19.0052 14.5607 18.9922 14.6257 18.9671 14.6864C18.9419 14.7471 18.9051 14.8023 18.8586 14.8487L15.3586 18.3487C15.3122 18.3952 15.2571 18.4321 15.1964 18.4573C15.1357 18.4824 15.0706 18.4954 15.0049 18.4954C14.9392 18.4954 14.8741 18.4824 14.8134 18.4573C14.7527 18.4321 14.6976 18.3952 14.6511 18.3487L13.1511 16.8487Z"
        fill="white" />
    <defs>
        <linearGradient id="paint0_linear_216_698" x1="16" y1="0" x2="16" y2="32"
            gradientUnits="userSpaceOnUse">
            <stop stop-color="#5499FF" />
            <stop offset="1" stop-color="#4B57E2" stop-opacity="0.9" />
        </linearGradient>
    </defs>
</svg>
    